<?xml version="1.0"?>
<svg xmlns:rdf="http://www.w3.org/1999/02/22-rdf-syntax-ns#" xmlns="http://www.w3.org/2000/svg" xmlns:cc="http://web.resource.org/cc/" xmlns:xlink="http://www.w3.org/1999/xlink" xmlns:dc="http://purl.org/dc/elements/1.1/" xmlns:svg="http://www.w3.org/2000/svg" id="Layer_1" xml:space="preserve" overflow="visible" viewBox="0 0 587 667.613" version="1.1" enable-background="new 0 0 587 667.613">
	<path d="m286 10.009h-12c1.9-5.362 11.53-9.014 12 0z" fill="#fff"/>
	<path d="m302 51.009c-21.846-2.921-45.235-0.328-61 6 11.438-17.896 15.842-48.157 47-43 8.28 8.724 11.39 22.611 14 37z" fill="#fff"/>
	<path d="m293 15.009c0.732-1.781 1.818-0.144 3 0 9.568 11.099 17.011 24.322 24 38-4.224 2.521-11.196-0.776-15-2-2.3-13.698-6.32-25.682-12-36z" fill="#fff"/>
	<path d="m303 54.009c6.682 26.652 3.842 62.825 6 94-26.396-3.646-58.532-3.713-78 7-2.485-32.153-2.377-70.376 8-93 15.47-8.928 41.27-12.147 64-8.001z" fill="#fff"/>
	<path d="m306 56.009c5.302-2.607 11.471 2.509 17 3 8.278 26.055 10.334 58.333 9 94-7.035-1.631-14.252-3.081-21-5-0.23-29.87 0.84-59.812-5-92.001z" fill="#fff"/>
	<path d="m360 126.01c6.693 3.197 1.661 14.111 8 16-3.141 2.526-11.672-0.338-15 2 2.49-5.84 4.58-12.09 7-18z" fill="#fff"/>
	<path d="m201 129.01h4c2.393 4.94 2.704 11.963 5 17-6.532-0.866-10.063 1.27-15 2 0.94-7.4 5.4-11.27 6-19z" fill="#fff"/>
	<path d="m341 180.01c-1.162 0.163-1.779-0.221-2-1 4.233-10.767 7.729-22.271 13-32 2.209 0.125 0.425 4.242 1 6 3.722-0.612 10.558 1.891 10-3 2.541 6.792 1.229 17.438 4 24-8.7 1.97-21.96-0.63-26 6z" fill="#fff"/>
	<path d="m366 147.01h4c3.854 9.146 6.154 19.846 11 28-0.954 3.286-8.123-0.94-12-1 0.02-10.26-0.87-17.23-3-27z" fill="#fff"/>
	<path d="m308 150.01c2.299 25.035 0.359 54.308 1 81-6.907-11.664-9.932-48.744-28-49-17.588-0.25-21.693 38.684-28 52-7.815 1.185-14.669 3.331-23 4v-80c19.6-10.91 50.13-10.1 78-8z" fill="#fff"/>
	<path d="m199 150.01c-0.781 10.885-3.011 20.323-5 30-4.35-0.017-8.998-0.331-12 1 6.61-9.39 4.67-27.33 17-31z" fill="#fff"/>
	<path d="m202 150.01c2.246 0.42 0.027 5.306 2 6 3.141-0.859 10.338 2.338 9-3 5.246 7.334 10.653 17.867 11 27-6.909-1.057-14.1-4.355-26-3 0.6-9.73 2.97-17.7 4-27z" fill="#fff"/>
	<path d="m311 152.01c8.081 1.488 12.818 2.388 21 5-0.634 20.418 0.343 54.425 1 80-6.531-1.469-12.886-3.114-20-4-0.9-23.12-0.2-53.57-2-81z" fill="#fff"/>
	<path d="m367 177.01v39c-11.708-0.042-21.419 1.915-29 6-2.236-15.45-2.239-25.704-1-40 9.9-1.77 17.36-5.97 30-5z" fill="#fff"/>
	<path d="m369 178.01c4.137 1.53 9.578 1.755 14 3 2.28 10.72 0.373 25.627 1 38-5.721 0.054-9.321-2.012-14-3 1.62-5.937-0.061-9.33 0-16 4.178-0.844 4.723 1.944 8 2 3.819-3.47 2.082-9.611 2-15-3.113-1.22-6.339-2.328-11-2 1.77-1.67-0.89-3.35 0-7z" fill="#fff"/>
	<path d="m197 180.01c12.14 0.238 18.9-0.277 28 3v40c-7.825-1.841-16.969-2.364-27-2-0.48-11.59-1.32-24.85-1-41z" fill="#fff"/>
	<path d="m194 187.01c-4.838-0.838-7.072 0.928-10 2v12c4.564 0.564 6.228-1.772 11-1v22c-6.905-0.905-8.234 3.766-15 3 0.072-14.35-0.388-29.622 1-40 3.47-1.17 15.4-8.62 13 2z" fill="#fff"/>
	<path d="m285 188.01c-2.203 1.797-7.126 0.874-10 2 1.46-3.82 6.11-2.91 10-2z" fill="#fff"/>
	<path d="m376 188.01c1.774 1.893 0.729 6.604 1 10h-5c0.309-3.643-0.159-6.508-1-9 1.16-0.84 2.68-1.32 5-1z" fill="#fff"/>
	<path d="m193 190.01c1.508 5.841-2.867 5.8-5 8-2.86-0.14-1.829-4.171-2-7 3.16 0.49 3.53-1.8 7-1z" fill="#fff"/>
	<path d="m302 223.01c-8.804-2.774-32.348-3.346-42 2 2.825-8.508 5.445-17.222 9-25 5.201-2.916 13.528-5.36 21-3 6.83 5.83 7.56 17.77 12 26z" fill="#fff"/>
	<path d="m367 221.01c-0.731 17.065 1.63 31.037 1 48-12.726-1.059-21.702 1.631-31 4v-46c8.84-3.16 17.09-6.91 30-6z" fill="#fff"/>
	<path d="m370 221.01c3.898 2.435 10.003 2.664 14 5-0.158 20.808 0.389 30.094 1 46-4.928-0.738-9.243-2.09-14-3-0.35-16.82 0.84-35.27-1-48z" fill="#fff"/>
	<path d="m303 228.01c4.173 18.494 8.296 37.037 11 57-8.09-0.577-16.002-1.331-23-3v-8c-5.13-2.862-14.697-2.359-20 0 0.195 4.515 2.515 2.235 1 7-5.081 4.586-16.67 2.663-22 7 0.953-18.383 4.059-43.273 10-60 10.9-5.35 32.78-7.74 43 0z" fill="#fff"/>
	<path d="m198 226.01c10.315-0.315 20.007-0.007 27 3 2.219 12.448 0.417 28.916 1 43-10.282 0.699-18.168-4.349-28-1v-45z" fill="#fff"/>
	<path d="m193 227.01c3.696 2.532 1.951 9.949 2 16 0.073 9.048 0.364 17.906 1 28-4.936 0.674-11.929 3.691-15 3-0.039-16.916-1.323-23.277-1-42 3.24-2.77 8.83-3.18 13-5z" fill="#fff"/>
	<path d="m334 242.01c-0.331 42.664 0.207 84.459 1 126-8.569-41.692-17.414-84.009-23-131 4.65 0.53 17.39 1.13 22 5z" fill="#fff"/>
	<path d="m252 238.01c-6.137 41.53-13.21 82.124-18 125-5.363-36.304-1.495-81.838-4-121 6.83-1.84 12.89-4.44 22-4z" fill="#fff"/>
	<path d="m368 271.01v45c-11.773-0.44-19.66 3.007-30 4 0.257-14.923-1.761-27.572-1-43 8.93-3.41 18.5-6.16 31-6z" fill="#fff"/>
	<path d="m371 272.01c4.965 1.035 10.777 1.223 14 4v44c-4.688-0.646-7.155-3.511-13-3 0.71-16.05-1.66-29.01-1-45z" fill="#fff"/>
	<path d="m196 320.01c-5.426 0.24-8.956 2.377-14 3 0.624-15.624-1.735-28.265-1-44 2.605-3.395 9.848-2.152 13-5 4.44 8.22 0.82 31.89 2 46z" fill="#fff"/>
	<path d="m198 274.01c11.151-0.818 19.593 1.073 28 3v45c-7.604-2.396-17.919-2.081-28-2v-46z" fill="#fff"/>
	<path d="m275 278.01c-0.396-1.94 4.555-1.461 3 1h-2c0.18-0.85-0.39-0.95-1-1z" fill="#fff"/>
	<path d="m282 278.01c3.72-3.49 5.07 2.73 0 0z" fill="#fff"/>
	<path d="m279 285.01c-0.675 20.76 1.543 32.462 1 53-11.979-0.312-20.192 3.141-30 5 0.569-18.236-1.757-33.576-1-52 9.11-2.89 18.25-5.75 30-6z" fill="#fff"/>
	<path d="m314 289.01c-0.044 17.675-0.25 38.695 1 52-11.48-0.186-18.968-4.365-32-3 0.914-19.704-1.471-37.893 0-53 10.57 1.1 22.27 1.06 31 4z" fill="#fff"/>
	<path d="m369 320.01c-0.469 16.171 0.457 31.694 1 50-12.883-1.217-21.146 2.188-31 4 0.323-16.555-0.468-36.549 0-50 8.61-2.15 19.73-6.82 30-4z" fill="#fff"/>
	<path d="m372 320.01c5.188 1.145 9.546 3.121 14 5 0.664 15.002-1.33 32.665 1 46-4.02 2.646-9.788-1.516-15-1v-50z" fill="#fff"/>
	<path d="m245 321.01c-0.146 31.422-6.34 73.284-10 107-1.408 12.967-1.352 21.951-7 31-4.096 6.561-13.146 13.443-20 21-6.39 7.045-16.655 16.354-18 23-1.099 5.43 0.94 13.576 1 20 0.067 7.219-0.499 13.062 0 18-12.862 4.471-31.996 2.67-49 3 5.685-24.484 24.591-38.775 42-56 7.462-7.383 16.531-15.529 25-24 14.391-14.391 20.99-22.045 24-47 2.09-17.328 4.172-35.446 7-55 2.06-14.26 4.01-26.08 5-41z" fill="#fff"/>
	<path d="m318 321.01c5.725 20.651 8.324 42.801 12 65 3.828 23.119 6.265 51.402 19 66 4.646 5.324 10.517 9.518 16 15 14.572 14.572 31.774 30.367 48 44 4.833 8.832 12.497 14.836 14 27-16.049-0.049-30.291 1.709-47 1-2.26-10.818 2.972-26.799 0-39-1.856-7.621-12.8-14.801-20-22-11.265-11.266-21.521-18.973-26-34-2.756-9.248-2.529-20.145-4-31-3.84-28.33-9.07-60.38-12-92z" fill="#fff"/>
	<path d="m198 323.01c10.867-0.867 18.482 1.518 28 2 0.167 17.758 0.741 32.225 1 50-8.288-0.276-17.53-2.277-27 0-3.62-14.39-1.38-34.62-2-52z" fill="#fff"/>
	<path d="m196 324.01v51c-5.392-0.391-11.081 3.123-14 2v-50c4.09-1.58 8.04-3.29 14-3z" fill="#fff"/>
	<path d="m281 342.01c-0.287 17.717 0.139 34.347 0 54-11.561-0.562-19.904 2.098-30 3-2.303-15.03-0.356-34.311-1-51 6.88-4.87 20.41-8.15 31-6z" fill="#fff"/>
	<path d="m315 344.01v53c-9.965-1.035-20.807-1.194-32-1v-55c12.54-0.88 20.6 2.73 32 3z" fill="#fff"/>
	<path d="m319 354.01c3.421 20.595 4.911 42.562 8 65 2.138 15.533 4.15 28.936 11 40 9.975 16.113 29.858 25.139 39 40-0.089 12.762 0.122 30.537 0 40-12.972 2.361-30.819-0.152-44 2-2.331-3.426-2.849-7.662-5-12-1.833-3.695-5.28-6.846-6-10-2.527-11.072-0.343-27.189-1-41-1.94-40.86-1.14-85.15-2-124z" fill="#fff"/>
	<path d="m245 358.01c1.462 35.232 1.759 78.525 4 118 0.821 14.465 2.439 30.777 0 44-1.427 7.734-8.571 13.729-10 22-14.563 3.158-30.699-0.582-45-1 2.033-15.381-2.816-27.682 0-39 1.738-6.986 11.915-15.408 17-21 6.705-7.373 13.175-13.852 19-19 1.505-6.162 4.045-11.289 7-16 1.8-30.2 6.09-57.91 8-88z" fill="#fff"/>
	<path d="m370 374.01c0.241 15.832-0.7 35.65 1 47-7.419 1.914-17.376 1.291-25 3-4.385-13.281-6.576-28.758-7-46 7.64-3.59 20.96-6.05 31-4z" fill="#fff"/>
	<path d="m372 374.01c7.601 0.939 10.034 0.9 15 4 0.664 14.336-1.33 31.33 1 44-2.565 1.848-11.361 1.398-14 0 0.56-17.23-1.2-32.13-2-48z" fill="#fff"/>
	<path d="m227 379.01c1.298 18.043-1.042 30.467-4 46-11.233-1.094-13.956 0.215-23 1 0.105-17.666 0.048-33.815-1-48 8.2-2.37 20.43-0.55 28 1z" fill="#fff"/>
	<path d="m196 378.01c-0.775 17.107 1.371 31.295 1 48-5.417-0.084-8.314 2.354-14 2-0.592-15.074 1.232-32.565-1-46 4.66-1.34 7.59-4.41 14-4z" fill="#fff"/>
	<path d="m284 398.01c11.173 0.16 20.376 2.289 31 3 4.342 13.324 0.902 34.432 2 51-7.849 0.811-21.188-0.543-32 0-2.23-15.48-0.46-40.16-1-54z" fill="#fff"/>
	<path d="m281 399.01c-0.774 18.773 1.362 34.639 1 53-12.114-0.781-20.401 2.266-31 3 0.084-17.125-0.116-39.164 0-53 9.64-1.36 19.2-2.81 30-3z" fill="#fff"/>
	<path d="m337 411.01c0.381-1.902 1.272 0.639 1 2-0.38 1.9-1.27-0.64-1-2z" fill="#fff"/>
	<path d="m340 424.01c1.483 0.85 2.15 2.518 2 5-3.36 1.03-1.56-3.11-2-5z" fill="#fff"/>
	<path d="m228 425.01c1.765-0.318 1.785 5.602-1 4-0.13-1.8 1.22-2.11 1-4z" fill="#fff"/>
	<path d="m371 425.01v32c-9.685-7.982-18.29-17.045-24-29 5.65-3.35 14.83-3.17 24-3z" fill="#fff"/>
	<path d="m388 427.01v46c-4.731-4.27-9.838-8.162-14-13v-34c2.98-1.47 8.97 1.32 14 1z" fill="#fff"/>
	<path d="m201 428.01c8.583 0.309 12.083-0.299 19 1-3.284 11.383-11.646 17.688-18 26-3.62-5.17-2.22-20.27-1-27z" fill="#fff"/>
	<path d="m197 430.01c-0.789 10.371 1.285 21.23 0 29-4.132 3.867-8.132 7.867-12 12-2.102-11.898-2.092-25.908-2-40 5.07 0.07 8.28-1.72 14-1z" fill="#fff"/>
	<path d="m342 432.01c2.517 0.408 4.594 3.422 3 5-3.12 0.46-3.2-2.14-3-5z" fill="#fff"/>
	<path d="m224 433.01h4c-0.564 2.436-0.856 5.145-4 5-1.88-1.91 0.59-1.81 0-5z" fill="#fff"/>
	<path d="m346 439.01c3.281-0.158 4.798 4.084 3 6-3.28 0.16-4.8-4.09-3-6z" fill="#fff"/>
	<path d="m224 441.01c-1.554 2.113-1.141 6.193-6 5-0.28-3.88 3.28-7.22 6-5z" fill="#fff"/>
	<path d="m352 452.01c-0.86-0.807-0.594-2.74-2-3 2.55-5.76 9.69 3.06 2 3z" fill="#fff"/>
	<path d="m218 448.01c-0.05 4.932-2.05 4.938-6 4 0.13-3.2 2.27-4.4 6-4z" fill="#fff"/>
	<path d="m356 453.01c4.629-0.43 6.726 1.668 5 5-2.89-0.44-4.56-2.11-5-5z" fill="#fff"/>
	<path d="m212 454.01c0.767 4.115-3.41 6.297-6 4 0.87-2.47 2.33-4.34 6-4z" fill="#fff"/>
	<path d="m318 458.01v57c-5.186 0.48-12.41-1.078-16 1 2.875 2.791 12.06-0.727 15 2-17.654 4.344-43.102 0.898-64 2 7.88-2.121 16.688-3.312 27-3-5.415-3.869-19.92-1.881-27-1-0.684-18.982-2.203-37.131-2-57 8.511-3.154 19.323-4.01 31-4 0.458 20.543-1.342 43.342 2 61 4.479-2.857 1.255-15.512 1-21-0.602-12.932 0.486-25.227-1-38v-2c10.49-2.05 25.17 0.08 34 3zm-28 57h2v-2h-2v2z" fill="#fff"/>
	<path d="m364 458.01c2.367 0.965 4.913 1.754 4 6-4.52 0.05-7.3-3.65-4-6z" fill="#fff"/>
	<path d="m206 461.01c-0.122 2.545-1.456 3.877-4 4-3.11-2.76 1.24-7.11 4-4z" fill="#fff"/>
	<path d="m374 469.01c-2.005 1.887-4.648-1.229-5-4 1.69-1.57 5.77 0.1 5 4z" fill="#fff"/>
	<path d="m198 465.01c4.349 1.418 0.417 8.029-3 5-1.06-3.73 2.1-3.23 3-5z" fill="#fff"/>
	<path d="m375 470.01c3.562-0.229 5.229 1.438 5 5-2.1 1.8-5.28-1.38-5-5z" fill="#fff"/>
	<path d="m192 471.01c1.313 0.354 1.573 1.76 3 2-0.848 2.152-2.463 3.537-6 3-1.06-3.73 2.1-3.23 3-5z" fill="#fff"/>
	<path d="m386 478.01c-0.184 3.072-5.386 2.1-5-1 2.08-2.17 3.23 0.12 5 1z" fill="#fff"/>
	<path d="m189 478.01c-0.5 2.623-3.247 5.635-6 3-0.24-3.36 3.71-5.17 6-3z" fill="#fff"/>
	<path d="m387 481.01c4.046-1.121 4.944 3.07 3 5-2.06-0.6-3.79-1.55-3-5z" fill="#fff"/>
	<path d="m183 484.01c-0.966 2.367-1.754 4.912-6 4-0.77-4.12 3.41-6.3 6-4z" fill="#fff"/>
	<path d="m393 486.01c1.479 0.521 2.521 1.479 4 2-0.869 1.463-1.497 3.17-4 3-0.11-2.49-1.87-3.1 0-5z" fill="#fff"/>
	<path d="m176 493.01c-1.161 0.838-2.681 1.318-5 1-1.22-4.88 6.04-7.23 5-1z" fill="#fff"/>
	<path d="m402 495.01c-2.081 2.17-3.232-0.123-5-1 0.09-2.98 5.96-2.68 5 1z" fill="#fff"/>
	<path d="m170 499.01c-1.161 0.838-2.681 1.318-5 1-1.22-4.88 6.04-7.23 5-1z" fill="#fff"/>
	<path d="m408 501.01c-2.678 2.693-3.803-1.273-6-2 0.82-3.79 6.6-1.54 6 2z" fill="#fff"/>
	<path d="m164 505.01c-2.488 0.109-3.096 1.873-5 0-0.47-4.17 6.11-5.79 5 0z" fill="#fff"/>
	<path d="m414 506.01c-2.059 2.074-5.072-0.004-5-3 1.58-1.59 4.59 0.48 5 3z" fill="#fff"/>
	<path d="m158 507.01c0.464 3.131-0.869 4.463-4 4 0.12-2.55 1.46-3.88 4-4z" fill="#fff"/>
	<path d="m420 512.01c-1.481 1.496-5.169 0.092-5-3 2.06-2.07 5.07 0 5 3z" fill="#fff"/>
	<path d="m151 513.01c4.91-0.023-0.37 7.252-2 4 0.43-1.57 3.15-0.86 2-4z" fill="#fff"/>
	<path d="m290 513.01h2v2h-2v-2z"/>
	<path d="m420 516.01h4v4c-2.54-0.12-3.88-1.46-4-4z" fill="#fff"/>
	<path d="m147 520.01c2.433 0.627 0.529 5.053-2 4-0.73-2.73 1.99-2.01 2-4z" fill="#fff"/>
	<path d="m424 522.01h3v5c-1.98-0.69-2.67-2.67-3-5z" fill="#fff"/>
	<path d="m320 524.01c9.734 13.6 12.386 34.279 13 57-9.729 2.271-23.621 0.379-35 1-6.688-15.15-4.221-42.227 0-58 9.32-0.06 13.29-0.76 22 0z" fill="#fff"/>
	<path d="m293 524.01c4.416-0.146-0.095 2.449 1 5-2.17 0.17-0.45-3.55-1-5z" fill="#fff"/>
	<path d="m272 525.01c5.329 14.666 4.575 41.523 3 57-12.382 0.092-24.258-0.338-33 1-5.324-21.301 0.391-45.357 10-58h20z" fill="#fff"/>
	<path d="m282 527.01c2.236 0.432 0.405 4.928 1 7-2.91-0.02-2.36-5.65-1-7z" fill="#fff"/>
	<path d="m286 527.01c3.513 0.547 1.605 5.799 1 8-2.26-0.75-0.39-5.61-1-8z" fill="#fff"/>
	<path d="m289 536.01c4.262 10.498 0.053 18.967 1 32-2.33-8.67-0.34-21.66-1-32z" fill="#fff"/>
	<path d="m399 542.01h29c0.319 2.348 1.58 3.754 1 7-11.44-0.9-28.15 3.48-30-7z" fill="#fff"/>
	<path d="m334 544.01h16c-1.497 4.836-4.237 8.43-7 12h-6c-1.34-3.67-2.36-7.64-3-12z" fill="#fff"/>
	<path d="m224 546.01h14c-0.079 4.586-2.89 6.443-2 12h-8c0.94-6.28-4.4-6.27-4-12z" fill="#fff"/>
	<path d="m141 547.01h31c-4.596 9.662-18.839 8.436-31 6v-6z" fill="#fff"/>
	<path d="m406 565.01c-17.689 2.311-39.649 0.352-59 1-0.473-9.473 4.431-13.57 8-19 12.328 2.02 26.996-2.744 37 0 7.9 2.16 12.29 10.55 14 18z" fill="#fff"/>
	<path d="m431 551.01c1.675 1.658 0.796 5.871 1 9-5.786 1.881-12.849 2.484-19 4 0.496-6.162-2.832-8.502-6-11 6.98-1.69 15.26-2.07 24-2z" fill="#fff"/>
	<path d="m139 556.01c5.738 1.596 13.821 0.846 21 1-1.013 3.654-2.1 7.232-3 11-7.768 0.102-13.594-1.74-20-3 2.04-1.62-0.04-7.38 2-9z" fill="#fff"/>
	<path d="m343 559.01c-1.863 6.232-0.989 14.701 1 20-3.469-0.803-3.844 1.488-7 1-0.349-6.65 0.887-14.887-1-20 1.29-1.38 4.34-0.99 7-1z" fill="#fff"/>
	<path d="m231 561.01h5c2.174 5.158 0.449 14.217 1 21-3.146 0.479-3.909-1.424-6-2 3.31-5.2 1.73-13.35 0-19z" fill="#fff"/>
	<path d="m406 569.01v9c-16.921 2.412-39.047-0.381-56 2-2.406-2.594-4.082-5.918-4-11 20.53 1.16 42.09-1.87 60 0z" fill="#fff"/>
	<path d="m403 583.01v4c-4.226 4.477-13.815 3.863-22 4-8.632 0.145-18.906 0.701-27-1-1.716-2.555 1.146-3.5-1-5 13.57-3.1 34.78-3.88 50-2z" fill="#fff"/>
	<path d="m223 591.01c-9.451 3.295-24.468 3-39 3-6.252 0-13.749 1.605-18-2v-3c2.541-5.273 12.034-3 19-3 7.46 0 15.644 0.262 22 0 6.98-0.29 16.16-3.73 16 5z" fill="#fff"/>
	<path d="m337 585.01h2c3.644 2.979 2 10.57 2 17 0 6.314 0.724 13.781-1 18-12.614-0.012-28.124 0.016-39 0-2.93-0.004-9.689 3.502-9-2 2.689-5.361 7.066 0.857 11 1 11.465 0.414 22.116-4.41 24-15 2.369-1.965 6.959-1.709 9-4-0.15-5.49-0.11-10.78 1-15z" fill="#fff"/>
	<path d="m236 586.01c3.938 2.396 2.981 9.686 5 14 5.035 3.631 11.282 6.051 11 15 5.825 2.842 12.312 5.021 22 4 2.859 0.125 4.678-5.898 8-2 1.572 5.963-5.568 3.729-9 4-10.763 0.852-27.916-0.467-36 0 0.77-12.77-1.29-22.72-1-35z" fill="#fff"/>
	<path d="m250 587.01h5c-4.137 3.195-3.074 11.592-10 12 0.54-5.13 7.15-4.18 5-12z" fill="#fff"/>
	<path d="m316 588.01c3.946 0.387 4.602 4.064 7 6-1.682 1.984-5.739 1.594-7 4-2.39-1.81-0.56-7.83 0-10z" fill="#fff"/>
	<path d="m258 589.01c1.796 2.869 3.19 6.145 3 11-3.601 0.268-4.819-1.848-8-2 1.07-3.6 3.13-6.2 5-9z" fill="#fff"/>
	<path d="m407 593.01v40c-16.084 2.248-36.617 0.049-53 2 0.654-13.988-1.717-24.951-1-39-0.044-1.711 0.743-2.59 2-3h52z" fill="#fff"/>
	<path d="m328 595.01c3.851-0.789 3.851 4.787 0 4v-4z" fill="#fff"/>
	<path d="m225 597.01c0.156 13.51-0.599 27.932 1 40-14.366 2.301-32.976 0.357-49 1v-27c-0.351-3.314-5.764-1.568-9-2-0.697-5.031 1.697-6.971 1-12h56z" fill="#fff"/>
	<path d="m318 600.01c-0.169-2.168 3.547-0.453 5-1 0.17 2.17-3.55 0.45-5 1z" fill="#fff"/>
	<path d="m295 610.01c-2.42 3.28-4.78-2.78 0 0z" fill="#fff"/>
	<path d="m282 610.01c-2.2 3.05-6.4-1.16 0 0z" fill="#fff"/>
	<path d="m286 611.01c1.319 0.273 1.782 14.547 1 17-2.31-3.69-0.35-11.65-1-17z" fill="#fff"/>
	<path d="m317 611.01c-3.086 2.58-6.665 4.668-13 4 3.37-2.3 6.95-4.38 13-4z" fill="#fff"/>
	<path d="m168 613.01h5c-0.079 4.029 0.103 9.035 0 14-0.088 4.293 1.72 10.572-2 12-6.502-0.994-1.358-16.328-3-23v-3z" fill="#fff"/>
	<path d="m259 614.01c-1.596-2.697 6.331 0.062 6 0 11.55 2.2-5.2 1.35-6 0z" fill="#fff"/>
	<path d="m326 624.01c0.272 6.939-10.42 2.912-16 4v-4c3.25-1.45 12.81-1.81 16 0z" fill="#fff"/>
	<path d="m341 624.01c0.641 5.975-8.943 1.725-13 3v-2c0.33-3.71 11.08-2.2 13-1z" fill="#fff"/>
	<path d="m292 624.01c3.648-0.648 5.326 0.674 7 2-0.529 0.805-1.043 1.623-1 3h-6v-5z" fill="#fff"/>
	<path d="m301 624.01c2.656 0.01 5.711-0.379 7 1 0.472 4.139-4.677 2.656-7 4v-5z" fill="#fff"/>
	<path d="m242 625.01c5.017 0.648 12.644-1.311 16 1v2c-1.584 4.414-11.151 0.85-16 2v-5z" fill="#fff"/>
	<path d="m262 625.01h10c-0.208 4.791-6.378 3.621-10 5v-5z" fill="#fff"/>
	<path d="m278 625.01c-0.241 1.758-1.721 2.279-4 2-1.01-3.01 2.23-1.77 4-2z" fill="#fff"/>
	<path d="m280 625.01c2.007-0.34 3.129 0.205 3 2h-3v-2z" fill="#fff"/>
	<path d="m435 625.01c4.335-0.668 2.692 4.641 3 8h-5c-0.1-3.44-0.52-7.18 2-8z" fill="#fff"/>
	<path d="m237 626.01c2.638-0.305 2.579 2.088 3 4-3.34 1-3.28-1.39-3-4z" fill="#fff"/>
	<path d="m301 631.01h6c-0.409 2.408 1.826 2.174 1 5h-7v-5z" fill="#fff"/>
	<path d="m310 631.01c5.017 0.648 12.644-1.311 16 1v2c-1.585 4.416-11.15 0.85-16 2v-5z" fill="#fff"/>
	<path d="m341 632.01v2c-0.331 3.707-11.082 2.199-13 1v-2c0.33-3.71 11.08-2.2 13-1z" fill="#fff"/>
	<path d="m262 632.01c2.79 2.277 4.939-1.008 8 1 1.266 5.6-5.315 3.352-8 5v-6z" fill="#fff"/>
	<path d="m272 632.01c2.651 0.016 5.888-0.555 6 2 0.48 5.07-8.39 3.58-6-2z" fill="#fff"/>
	<path d="m299 636.01h-8v-3c2.48-1.98 9-1.6 8 3z" fill="#fff"/>
	<path d="m259 634.01c0.966 6.986-13.487 3.818-17 3 0.45-5.57 12.82-4.49 17-3z" fill="#fff"/>
	<path d="m240 634.01c0.423 2.09-0.686 2.648-1 4-2.9-0.18-2.41-4.75 1-4z" fill="#fff"/>
	<path d="m138 635.01h3c-2.058 2.258 2.976 12.365-2 14 2.242 1.619 2.416 4.617 1 7-4.51-3.16-0.78-14.55-2-21z" fill="#fff"/>
	<path d="m406 637.01v15c-17.809-0.143-35.455-0.123-52 1v-15c18.35 0.69 33.65-1.69 52-1z" fill="#fff"/>
	<path d="m427 638.01c0.125-2.209 4.242-0.426 6-1v4c-1.584 0.082-3.814-0.48-4 1-2.72 0.71 0.72-4.72-2-4z" fill="#fff"/>
	<path d="m335 639.01v5h-7v-4c1.29-1.38 4.34-0.99 7-1z" fill="#fff"/>
	<path d="m338 639.01h3v5c-4.05 1.12-4.94-3.07-3-5z" fill="#fff"/>
	<path d="m437 640.01c0.381-1.904 1.272 0.639 1 2-0.38 1.9-1.27-0.64-1-2z" fill="#fff"/>
	<path d="m278 645.01h-7v-4c2.61-2.11 8.85-1.45 7 4z" fill="#fff"/>
	<path d="m283 640.01c3.629-0.963 0.84 4.492 4 4-0.31 1.357-2.504 0.83-4 1v-5z" fill="#fff"/>
	<path d="m292 640.01h7c1.268 5.268-2.596 5.404-7 5v-5z" fill="#fff"/>
	<path d="m301 640.01h7c1.059 5.059-2.805 5.195-7 5v-5z" fill="#fff"/>
	<path d="m310 640.01c2.071 0.594 6.569-1.236 7 1 1.452 4.785-4.182 2.484-7 3v-4z" fill="#fff"/>
	<path d="m319 640.01c2.071 0.594 6.569-1.236 7 1 1.451 4.785-4.182 2.484-7 3v-4z" fill="#fff"/>
	<path d="m259 645.01c-3.649-0.889-5.326 1.768-7 0-1.96-5.61 8.96-5.61 7 0z" fill="#fff"/>
	<path d="m262 641.01c3.747-0.082 8.092-0.758 7 4h-7v-4z" fill="#fff"/>
	<path d="m225 642.01v13c-17.094-0.762-31.109 1.559-48 1 0.435-4.564-1.011-11.012 1-14h47z" fill="#fff"/>
	<path d="m238 642.01c3.492-0.895 1.708 3.262 1 4-1.36-0.31-0.83-2.51-1-4z" fill="#fff"/>
	<path d="m242 642.01c2.072 0.594 6.569-1.236 7 1 1.452 4.785-4.181 2.484-7 3v-4z" fill="#fff"/>
	<path d="m168 643.01h5c-0.637 5.404 1.111 9.965 0 13-2.826 0.826-2.591-1.41-5-1v-12z" fill="#fff"/>
	<path d="m154 644.01c-0.553 2.371-3.866 4.148-6 2 0.11-2.55 3.35-1.99 6-2z" fill="#fff"/>
	<path d="m437 644.01c3.7 3.03-3.04 3.37 0 0z" fill="#fff"/>
	<path d="m423 645.01c2.169-0.17 0.453 3.547 1 5-1.419-0.086-2.832-0.166-3 1-3.952-0.318 0.74-3.096-2-4-0.72-2.72 4.72 0.71 4-2z" fill="#fff"/>
	<path d="m428 645.01c2.279-1.373 3.759 2.578 4 0 2.168-0.17 0.453 3.547 1 5h-5v-5z" fill="#fff"/>
	<path d="m326 647.01v6h-7c-1.18-5.51 2.19-6.48 7-6z" fill="#fff"/>
	<path d="m335 647.01v6c-2.656-0.01-5.711 0.377-7-1v-2c-0.08-3.41 3.7-2.96 7-3z" fill="#fff"/>
	<path d="m338 647.01h3v6c-4.49 1.36-4.85-4.03-3-6z" fill="#fff"/>
	<path d="m278 648.01v5c-3.056-0.723-3.644 1.021-6 1-0.839-1.162-1.319-2.682-1-5 1.29-1.38 4.34-0.99 7-1z" fill="#fff"/>
	<path d="m283 648.01h5v5h-5v-5z" fill="#fff"/>
	<path d="m292 648.01h7v5h-7v-5z" fill="#fff"/>
	<path d="m301 648.01h7v5h-7v-5z" fill="#fff"/>
	<path d="m310 648.01h7v5h-7v-5z" fill="#fff"/>
	<path d="m238 649.01c3.073-1.531 3.073 6.529 0 5v-5z" fill="#fff"/>
	<path d="m242 649.01h7v5h-7v-5z" fill="#fff"/>
	<path d="m252 649.01h7v5h-7v-5z" fill="#fff"/>
	<path d="m262 649.01h7c1.267 5.268-2.596 5.404-7 5v-5z" fill="#fff"/>
	<path d="m149 652.01c0.125-2.209 4.242-0.426 6-1v4c-0.845 0.938-6.375 2.135-7 0-1.58-3.04 6.48-2.08 1-3z" fill="#fff"/>
	<path d="m336 172.01c5.158-6.923 6.508-15.199 11-27 2.248-5.904 8.115-23.989 14-24 5.174-0.01 6.218 6.298 9 14 5.336 14.771 17.062 36.183 19 50 4.014 28.62-1.518 64.987 0 101 2.559 60.7 1.417 116.24 4 175 0.202 4.592-1.273 11.357 0 16 1.749 6.377 11.017 12.32 17 18 7.088 6.729 15.591 12.312 19 21 4.524 11.531 6.279 30.137 8 48-8.74 0.926-15.161 4.172-24 5-0.129 21.795 1.732 41.602 1 64 3.346 1.832 9.211-1.084 15 0 2.445-3.555-1.483-13.482 7-11-1.35-2.65-5.271-2.729-5-7 6.571 0.764 8.975 5.691 13 9v25c29.275 3.928 61.724-1.201 92 2 7.928 0.838 19.751 2 32 2 6.083 0 14.576-2.227 19 3-2.164 3.641-9.391 2.014-15 2-12.528-0.027-27.983-1.535-43-2-10.629-0.33-20.843-0.09-32-1-20.839-1.703-45.749-0.127-71 1-72.517 3.234-154.34 0.812-230 4-17.98 0.758-36.287-0.887-53 1-34.098 3.848-80.106 3.201-121 5-7.194 0.316-17.445 4.889-22-3 39.314-3.434 89.56-4.188 131-5 1.899-7.088 1.276-19.805 0-27 3.725-1.941 6.679-4.654 12-5 3.658 1.521 1.045 7.082 2 13h13c0.539-22.873-0.618-44.049-1-66-7.91-1.424-16.482-2.184-24-4 2.198-20.805 1.981-38.939 10-52 0.684-1.115 2.401-1.77 3-3 7.127-14.656 21.987-25.533 33-37 0.568-80.748-2.25-176.29-3-257-0.11-11.851-1.515-24.895 0-35 0.753-5.027 3.915-10.505 6-16 1.858-4.896 3.91-10.537 6-16 3.051-7.974 7.488-28.76 15-29 7.845-0.25 9.419 14.07 12 21 3.155 8.47 6.72 15.817 10 22 3.044-17.673-2.774-43.377 0-68 0.943-8.373 4.014-20.456 7-30 8.6-27.487 24.366-50.17 44-66 2.022-1.63 0.812-3.139 4-3 10.989 0.479 23.989 16.517 31 27 12.817 19.167 22.544 43.963 25 72 2.14 24.39-1.6 50.51 0 73zm-62-162h12c-0.47-9.014-10.1-5.362-12 0zm14 4c-31.158-5.157-35.562 25.104-47 43 15.765-6.328 39.154-8.921 61-6-2.61-14.389-5.72-28.276-14-37zm17 37c3.804 1.224 10.776 4.521 15 2-6.989-13.678-14.432-26.901-24-38-1.182-0.144-2.268-1.781-3 0 5.68 10.318 9.7 22.302 12 36zm-66 11c-10.377 22.624-10.485 60.847-8 93 19.468-10.713 51.604-10.646 78-7-2.158-31.175 0.682-67.348-6-94-22.73-4.147-48.53-0.928-64 7.999zm72 86.001c6.748 1.919 13.965 3.369 21 5 1.334-35.667-0.722-67.945-9-94-5.529-0.491-11.698-5.607-17-3 5.84 32.188 4.77 62.13 5 92zm42-4c3.328-2.338 11.859 0.526 15-2-6.339-1.889-1.307-12.803-8-16-2.42 5.91-4.51 12.16-7 18zm-158 4c4.937-0.73 8.468-2.866 15-2-2.296-5.037-2.607-12.06-5-17h-4c-0.6 7.73-5.06 11.6-6 19zm142 34c-1.239 14.296-1.236 24.55 1 40 7.581-4.085 17.292-6.042 29-6v-39c-12.64-0.97-20.1 3.23-30 5zm30-8c-2.771-6.562-1.459-17.208-4-24 0.558 4.891-6.278 2.388-10 3-0.575-1.758 1.209-5.875-1-6-5.271 9.729-8.767 21.233-13 32 0.221 0.779 0.838 1.163 2 1 4.04-6.63 17.3-4.03 26-6zm2 0c3.877 0.06 11.046 4.286 12 1-4.846-8.154-7.146-18.854-11-28h-4c2.13 9.77 3.02 16.74 3 27zm-139-16v80c8.331-0.669 15.185-2.815 23-4 6.307-13.316 10.412-52.25 28-52 18.068 0.256 21.093 37.336 28 49-0.641-26.692 1.299-55.965-1-81-27.87-2.1-58.4-2.91-78 8zm-48 23c3.002-1.331 7.65-1.017 12-1 1.989-9.677 4.219-19.115 5-30-12.33 3.67-10.39 21.61-17 31zm16-4c11.9-1.355 19.091 1.943 26 3-0.347-9.133-5.754-19.666-11-27 1.338 5.338-5.859 2.141-9 3-1.973-0.694 0.246-5.58-2-6-1.03 9.3-3.4 17.27-4 27zm115 56c7.114 0.886 13.469 2.531 20 4-0.657-25.575-1.634-59.582-1-80-8.182-2.612-12.919-3.512-21-5 1.8 27.43 1.1 57.88 2 81zm56-48c4.661-0.328 7.887 0.78 11 2 0.082 5.389 1.819 11.53-2 15-3.277-0.056-3.822-2.844-8-2-0.061 6.67 1.62 10.063 0 16 4.679 0.988 8.279 3.054 14 3-0.627-12.373 1.28-27.28-1-38-4.422-1.245-9.863-1.47-14-3-0.89 3.65 1.77 5.33 0 7zm-171 36c10.031-0.364 19.175 0.159 27 2v-40c-9.1-3.277-15.86-2.762-28-3-0.32 16.15 0.52 29.41 1 41zm-17-36c-1.388 10.378-0.928 25.65-1 40 6.766 0.766 8.095-3.905 15-3v-22c-4.772-0.772-6.436 1.564-11 1v-12c2.928-1.072 5.162-2.838 10-2 2.4-10.62-9.53-3.17-13-2zm94 5c2.874-1.126 7.797-0.203 10-2-3.89-0.91-8.54-1.82-10 2zm96-1c0.841 2.492 1.309 5.357 1 9h5c-0.271-3.396 0.774-8.107-1-10-2.32-0.32-3.84 0.16-5 1zm-185 2c0.171 2.829-0.86 6.86 2 7 2.133-2.2 6.508-2.159 5-8-3.47-0.8-3.84 1.49-7 1zm104 6c-7.472-2.36-15.799 0.084-21 3-3.555 7.778-6.175 16.492-9 25 9.652-5.346 33.196-4.774 42-2-4.44-8.23-5.17-20.17-12-26zm47 30v46c9.298-2.369 18.274-5.059 31-4 0.63-16.963-1.731-30.935-1-48-12.91-0.91-21.16 2.84-30 6zm34 42c4.757 0.91 9.072 2.262 14 3-0.611-15.906-1.158-25.192-1-46-3.997-2.336-10.102-2.565-14-5 1.84 12.73 0.65 31.18 1 48zm-111-41c-5.941 16.727-9.047 41.617-10 60 5.33-4.337 16.919-2.414 22-7 1.515-4.765-0.805-2.485-1-7 5.303-2.359 14.87-2.862 20 0v8c6.998 1.669 14.91 2.423 23 3-2.704-19.963-6.827-38.506-11-57-10.22-7.74-32.1-5.35-43 0zm-62 43c9.832-3.349 17.718 1.699 28 1-0.583-14.084 1.219-30.552-1-43-6.993-3.007-16.685-3.315-27-3v45zm-18-39c-0.323 18.723 0.961 25.084 1 42 3.071 0.691 10.064-2.326 15-3-0.636-10.094-0.927-18.952-1-28-0.049-6.051 1.696-13.468-2-16-4.17 1.82-9.76 2.23-13 5zm132 5c5.586 46.991 14.431 89.308 23 131-0.793-41.542-1.331-83.336-1-126-4.61-3.87-17.35-4.47-22-5zm-82 5c2.505 39.162-1.363 84.696 4 121 4.79-42.876 11.863-83.47 18-125-9.11-0.44-15.17 2.16-22 4zm107 35c-0.761 15.428 1.257 28.077 1 43 10.34-0.993 18.227-4.44 30-4v-45c-12.5-0.16-22.07 2.59-31 6zm35 40c5.845-0.511 8.312 2.354 13 3v-44c-3.223-2.777-9.035-2.965-14-4-0.66 15.99 1.71 28.95 1 45zm-178-43c-3.152 2.848-10.395 1.605-13 5-0.735 15.735 1.624 28.376 1 44 5.044-0.623 8.574-2.76 14-3-1.18-14.11 2.44-37.78-2-46zm4 46c10.081-0.081 20.396-0.396 28 2v-45c-8.407-1.927-16.849-3.818-28-3v46zm78-41h2c1.555-2.461-3.396-2.94-3-1 0.61 0.05 1.18 0.15 1 1zm6-1c5.07 2.73 3.72-3.49 0 0zm-33 13c-0.757 18.424 1.569 33.764 1 52 9.808-1.859 18.021-5.312 30-5 0.543-20.538-1.675-32.24-1-53-11.75 0.25-20.89 3.11-30 6zm34-6c-1.471 15.107 0.914 33.296 0 53 13.032-1.365 20.52 2.814 32 3-1.25-13.305-1.044-34.325-1-52-8.73-2.94-20.43-2.9-31-4zm56 39c-0.468 13.452 0.323 33.446 0 50 9.854-1.812 18.117-5.217 31-4-0.543-18.307-1.469-33.829-1-50-10.27-2.82-21.39 1.85-30 4zm33 46c5.212-0.516 10.98 3.646 15 1-2.33-13.336-0.336-30.998-1-46-4.454-1.879-8.812-3.855-14-5v50zm-132-8c-2.828 19.554-4.91 37.672-7 55-3.01 24.955-9.609 32.609-24 47-8.469 8.469-17.538 16.617-25 24-17.409 17.225-36.315 31.516-42 56 17.004-0.33 36.138 1.471 49-3-0.499-4.938 0.067-10.781 0-18-0.06-6.424-2.099-14.57-1-20 1.345-6.646 11.61-15.955 18-23 6.854-7.557 15.904-14.439 20-21 5.648-9.049 5.592-18.033 7-31 3.66-33.717 9.854-75.578 10-107-0.99 14.92-2.94 26.74-5 41zm90 51c1.471 10.855 1.244 21.752 4 31 4.479 15.027 14.735 22.734 26 34 7.2 7.199 18.144 14.379 20 22 2.972 12.201-2.26 28.182 0 39 16.709 0.709 30.951-1.049 47-1-1.503-12.164-9.167-18.168-14-27-16.226-13.633-33.428-29.428-48-44-5.483-5.482-11.354-9.676-16-15-12.735-14.598-15.172-42.881-19-66-3.676-22.199-6.275-44.35-12-65 2.93 31.62 8.16 63.67 12 92zm-130-38c9.47-2.277 18.712-0.276 27 0-0.259-17.775-0.833-32.242-1-50-9.518-0.482-17.133-2.867-28-2 0.62 17.38-1.62 37.61 2 52zm-18-48v50c2.919 1.123 8.608-2.391 14-2v-51c-5.96-0.29-9.91 1.42-14 3zm68 21c0.644 16.689-1.303 35.97 1 51 10.096-0.902 18.439-3.562 30-3 0.139-19.653-0.287-36.283 0-54-10.59-2.15-24.12 1.13-31 6zm33-7v55c11.193-0.194 22.035-0.035 32 1v-53c-11.4-0.27-19.46-3.88-32-3zm38 137c0.657 13.811-1.527 29.928 1 41 0.72 3.154 4.167 6.305 6 10 2.151 4.338 2.669 8.574 5 12 13.181-2.152 31.028 0.361 44-2 0.122-9.463-0.089-27.238 0-40-9.142-14.861-29.025-23.887-39-40-6.85-11.064-8.862-24.467-11-40-3.089-22.438-4.579-44.405-8-65 0.86 38.85 0.06 83.14 2 124zm-84-32c-2.955 4.711-5.495 9.838-7 16-5.825 5.148-12.295 11.627-19 19-5.085 5.592-15.262 14.014-17 21-2.816 11.318 2.033 23.619 0 39 14.301 0.418 30.437 4.158 45 1 1.429-8.271 8.573-14.266 10-22 2.439-13.223 0.821-29.535 0-44-2.241-39.475-2.538-82.768-4-118-1.91 30.09-6.2 57.8-8 88zm102-68c0.424 17.242 2.615 32.719 7 46 7.624-1.709 17.581-1.086 25-3-1.7-11.35-0.759-31.168-1-47-10.04-2.05-23.36 0.41-31 4zm35 44c2.639 1.398 11.435 1.848 14 0-2.33-12.67-0.336-29.664-1-44-4.966-3.1-7.399-3.061-15-4 0.8 15.87 2.56 30.77 2 48zm-175-44c1.048 14.185 1.105 30.334 1 48 9.044-0.785 11.767-2.094 23-1 2.958-15.533 5.298-27.957 4-46-7.57-1.55-19.8-3.37-28-1zm-17 4c2.232 13.435 0.408 30.926 1 46 5.686 0.354 8.583-2.084 14-2 0.371-16.705-1.775-30.893-1-48-6.41-0.41-9.34 2.66-14 4zm103 70c10.812-0.543 24.151 0.811 32 0-1.098-16.568 2.342-37.676-2-51-10.624-0.711-19.827-2.84-31-3 0.54 13.84-1.23 38.52 1 54zm-34-50c-0.116 13.836 0.084 35.875 0 53 10.599-0.734 18.886-3.781 31-3 0.362-18.361-1.774-34.227-1-53-10.8 0.19-20.36 1.64-30 3zm87 11c0.272-1.361-0.619-3.902-1-2-0.27 1.36 0.62 3.9 1 2zm4 16c0.15-2.482-0.517-4.15-2-5 0.44 1.89-1.36 6.03 2 5zm-115 0c2.785 1.602 2.765-4.318 1-4 0.22 1.89-1.13 2.2-1 4zm120-1c5.71 11.955 14.315 21.018 24 29v-32c-9.17-0.17-18.35-0.35-24 3zm27-2v34c4.162 4.838 9.269 8.73 14 13v-46c-5.03 0.32-11.02-2.47-14-1zm-172 29c6.354-8.312 14.716-14.617 18-26-6.917-1.299-10.417-0.691-19-1-1.22 6.73-2.62 21.83 1 27zm-19-24c-0.092 14.092-0.102 28.102 2 40 3.868-4.133 7.868-8.133 12-12 1.285-7.77-0.789-18.629 0-29-5.72-0.72-8.93 1.07-14 1zm162 6c1.594-1.578-0.483-4.592-3-5-0.2 2.86-0.12 5.46 3 5zm-121 1c3.144 0.145 3.436-2.564 4-5h-4c0.59 3.19-1.88 3.09 0 5zm125 7c1.798-1.916 0.281-6.158-3-6-1.8 1.91-0.28 6.16 3 6zm-131 1c4.859 1.193 4.446-2.887 6-5-2.72-2.22-6.28 1.12-6 5zm132 3c1.406 0.26 1.14 2.193 2 3 7.69 0.06 0.55-8.76-2-3zm-138 3c3.95 0.938 5.95 0.932 6-4-3.73-0.4-5.87 0.8-6 4zm149 6c1.726-3.332-0.371-5.43-5-5 0.44 2.89 2.11 4.56 5 5zm-155 0c2.59 2.297 6.767 0.115 6-4-3.67-0.34-5.13 1.53-6 4zm78-3v2c1.486 12.773 0.398 25.068 1 38 0.255 5.488 3.479 18.143-1 21-3.342-17.658-1.542-40.457-2-61-11.677-0.01-22.489 0.846-31 4-0.203 19.869 1.316 38.018 2 57 7.08-0.881 21.585-2.869 27 1-10.312-0.312-19.12 0.879-27 3 20.898-1.102 46.346 2.344 64-2-2.94-2.727-12.125 0.791-15-2 3.59-2.078 10.814-0.52 16-1v-57c-8.83-2.92-23.51-5.05-34-3zm84 9c0.913-4.246-1.633-5.035-4-6-3.3 2.35-0.52 6.05 4 6zm-166 1c2.544-0.123 3.878-1.455 4-4-2.76-3.11-7.11 1.24-4 4zm167 0c0.352 2.771 2.995 5.887 5 4 0.77-3.9-3.31-5.57-5-4zm-174 5c3.417 3.029 7.349-3.582 3-5-0.9 1.77-4.06 1.27-3 5zm185 5c0.229-3.562-1.438-5.229-5-5-0.28 3.62 2.9 6.8 5 5zm-191 1c3.537 0.537 5.152-0.848 6-3-1.427-0.24-1.687-1.646-3-2-0.9 1.77-4.06 1.27-3 5zm192 1c-0.386 3.1 4.816 4.072 5 1-1.77-0.88-2.92-3.17-5-1zm-198 4c2.753 2.635 5.5-0.377 6-3-2.29-2.17-6.24-0.36-6 3zm207 5c1.944-1.93 1.046-6.121-3-5-0.79 3.45 0.94 4.4 3 5zm-213 2c4.246 0.912 5.034-1.633 6-4-2.59-2.3-6.77-0.12-6 4zm216 3c2.503 0.17 3.131-1.537 4-3-1.479-0.521-2.521-1.479-4-2-1.87 1.9-0.11 2.51 0 5zm-222 3c2.319 0.318 3.839-0.162 5-1 1.04-6.23-6.22-3.88-5 1zm226 0c1.768 0.877 2.919 3.17 5 1 0.96-3.68-4.91-3.98-5-1zm-232 6c2.319 0.318 3.839-0.162 5-1 1.04-6.23-6.22-3.88-5 1zm237-1c2.197 0.727 3.322 4.693 6 2 0.6-3.54-5.18-5.79-6-2zm-243 6c1.904 1.873 2.512 0.109 5 0 1.11-5.79-5.47-4.17-5 0zm250-2c-0.072 2.996 2.941 5.074 5 3-0.41-2.52-3.42-4.59-5-3zm-255 8c3.131 0.463 4.464-0.869 4-4-2.54 0.12-3.88 1.45-4 4zm261-2c-0.169 3.092 3.519 4.496 5 3 0.07-3-2.94-5.07-5-3zm-266 8c1.63 3.252 6.91-4.023 2-4 1.15 3.14-1.57 2.43-2 4zm275 3v-4h-4c0.12 2.54 1.46 3.88 4 4zm-279 4c2.529 1.053 4.433-3.373 2-4-0.01 1.99-2.73 1.27-2 4zm282 3v-5h-3c0.33 2.33 1.02 4.31 3 5zm-129-3c-4.221 15.773-6.688 42.85 0 58 11.379-0.621 25.271 1.271 35-1-0.614-22.721-3.266-43.4-13-57-8.71-0.76-12.68-0.06-22 0zm-4 5c-1.095-2.551 3.416-5.146-1-5 0.55 1.45-1.17 5.17 1 5zm-42-4c-9.609 12.643-15.324 36.699-10 58 8.742-1.338 20.618-0.908 33-1 1.575-15.477 2.329-42.334-3-57h-20zm31 9c-0.595-2.072 1.236-6.568-1-7-1.36 1.35-1.91 6.98 1 7zm4 1c0.605-2.201 2.513-7.453-1-8 0.61 2.39-1.26 7.25 1 8zm3 33c-0.947-13.033 3.262-21.502-1-32 0.66 10.34-1.33 23.33 1 32zm139-19c0.58-3.246-0.681-4.652-1-7h-29c1.85 10.48 18.56 6.1 30 7zm-92 7h6c2.763-3.57 5.503-7.164 7-12h-16c0.64 4.36 1.66 8.33 3 12zm-109 2h8c-0.89-5.557 1.921-7.414 2-12h-14c-0.4 5.73 4.94 5.72 4 12zm-87-5c12.161 2.436 26.404 3.662 31-6h-31v6zm251-6c-10.004-2.744-24.672 2.02-37 0-3.569 5.432-8.473 9.527-8 19 19.351-0.648 41.311 1.311 59-1-1.71-7.45-6.1-15.84-14-18zm15 6c3.168 2.498 6.496 4.838 6 11 6.151-1.516 13.214-2.119 19-4-0.204-3.129 0.675-7.342-1-9-8.74-0.07-17.02 0.31-24 2zm-270 12c6.406 1.26 12.232 3.102 20 3 0.9-3.768 1.987-7.346 3-11-7.179-0.154-15.262 0.596-21-1-2.04 1.62 0.04 7.38-2 9zm199-5c1.887 5.113 0.651 13.35 1 20 3.156 0.488 3.531-1.803 7-1-1.989-5.299-2.863-13.768-1-20-2.66 0.01-5.71-0.38-7 1zm-105 20c2.091 0.576 2.854 2.479 6 2-0.551-6.783 1.174-15.842-1-21h-5c1.73 5.65 3.31 13.8 0 19zm115-11c-0.082 5.082 1.594 8.406 4 11 16.953-2.381 39.079 0.412 56-2v-9c-17.91-1.87-39.47 1.16-60 0zm7 16c2.146 1.5-0.716 2.445 1 5 8.094 1.701 18.368 1.145 27 1 8.185-0.137 17.774 0.477 22-4v-4c-15.22-1.88-36.43-1.1-50 2zm-146 1c-6.356 0.262-14.54 0-22 0-6.966 0-16.459-2.273-19 3v3c4.251 3.605 11.748 2 18 2 14.532 0 29.549 0.295 39-3 0.16-8.73-9.02-5.29-16-5zm129 14c-2.041 2.291-6.631 2.035-9 4-1.884 10.59-12.535 15.414-24 15-3.934-0.143-8.311-6.361-11-1-0.689 5.502 6.07 1.996 9 2 10.876 0.016 26.386-0.012 39 0 1.724-4.219 1-11.686 1-18 0-6.43 1.644-14.021-2-17h-2c-1.11 4.22-1.15 9.51-1 15zm-99 21c8.084-0.467 25.237 0.852 36 0 3.432-0.271 10.572 1.963 9-4-3.322-3.898-5.141 2.125-8 2-9.688 1.021-16.175-1.158-22-4 0.282-8.949-5.965-11.369-11-15-2.019-4.314-1.062-11.604-5-14-0.29 12.28 1.77 22.23 1 35zm89-31c-1.181-1.484-0.865-4.469-4-4-0.27 2.37 3.95 5.25 4 4zm-81 9c6.926-0.408 5.863-8.805 10-12h-5c2.15 7.82-4.46 6.87-5 12zm71-1c1.261-2.406 5.318-2.016 7-4-2.398-1.936-3.054-5.613-7-6-0.56 2.17-2.39 8.19 0 10zm-63 0c3.181 0.152 4.399 2.268 8 2 0.19-4.855-1.204-8.131-3-11-1.87 2.8-3.93 5.4-5 9zm102-5c-1.257 0.41-2.044 1.289-2 3-0.717 14.049 1.654 25.012 1 39 16.383-1.951 36.916 0.248 53-2v-40h-52zm-27 6c3.851 0.787 3.851-4.789 0-4v4zm-159-2c0.697 5.029-1.697 6.969-1 12 3.236 0.432 8.649-1.314 9 2v27c16.024-0.643 34.634 1.301 49-1-1.599-12.068-0.844-26.49-1-40h-56zm154 2c-1.453 0.547-5.169-1.168-5 1 1.45-0.55 5.17 1.17 5-1zm-28 11c-4.78-2.78-2.42 3.28 0 0zm-13 0c-6.4-1.16-2.2 3.05 0 0zm5 18c0.782-2.453 0.319-16.727-1-17 0.65 5.35-1.31 13.31 1 17zm17-13c6.335 0.668 9.914-1.42 13-4-6.05-0.38-9.63 1.7-13 4zm-136 1c1.642 6.672-3.502 22.006 3 23 3.72-1.428 1.912-7.707 2-12 0.103-4.965-0.079-9.971 0-14h-5v3zm97-2c0.331 0.062-7.596-2.697-6 0 0.8 1.35 17.55 2.2 6 0zm45 10v4c5.58-1.088 16.272 2.939 16-4-3.19-1.81-12.75-1.45-16 0zm18 1v2c4.057-1.275 13.641 2.975 13-3-1.92-1.2-12.67-2.71-13 1zm-36 4h6c-0.043-1.377 0.471-2.195 1-3-1.674-1.326-3.352-2.648-7-2v5zm9 0c2.323-1.344 7.472 0.139 7-4-1.289-1.379-4.344-0.99-7-1v5zm-59 1c4.849-1.15 14.416 2.414 16-2v-2c-3.356-2.311-10.983-0.352-16-1v5zm20 0c3.622-1.379 9.792-0.209 10-5h-10v5zm12-3c2.279 0.279 3.759-0.242 4-2-1.77 0.23-5.01-1.01-4 2zm6 0h3c0.129-1.795-0.993-2.34-3-2v2zm153 6h5c-0.308-3.359 1.335-8.668-3-8-2.52 0.82-2.1 4.56-2 8zm-193-3c-0.421-1.912-0.362-4.305-3-4-0.28 2.61-0.34 5 3 4zm61 6h7c0.826-2.826-1.409-2.592-1-5h-6v5zm9 0c4.85-1.15 14.415 2.416 16-2v-2c-3.356-2.311-10.983-0.352-16-1v5zm18-3v2c1.918 1.199 12.669 2.707 13-1v-2c-1.92-1.2-12.67-2.71-13 1zm-66 5c2.685-1.648 9.266 0.6 8-5-3.061-2.008-5.21 1.277-8-1v6zm16-4c-0.112-2.555-3.349-1.984-6-2-2.39 5.58 6.48 7.07 6 2zm13-1v3h8c1-4.6-5.52-4.98-8-3zm-49 4c3.513 0.818 17.966 3.986 17-3-4.18-1.49-16.55-2.57-17 3zm-3 1c0.314-1.352 1.423-1.91 1-4-3.41-0.75-3.9 3.82-1 4zm-99 18c1.416-2.383 1.242-5.381-1-7 4.976-1.635-0.058-11.742 2-14h-3c1.22 6.45-2.51 17.84 2 21zm214-18v15c16.545-1.123 34.191-1.143 52-1v-15c-18.35-0.69-33.65 1.69-52 1zm65 4h5v-5h-4c0.83 2.83-1.41 2.59-1 5zm10 0c0.186-1.48 2.416-0.918 4-1v-4c-1.758 0.574-5.875-1.209-6 1 2.72-0.72-0.72 4.71 2 4zm-101-2v4h7v-5c-2.66 0.01-5.71-0.38-7 1zm13 4v-5h-3c-1.94 1.93-1.05 6.12 3 5zm97-2c0.272-1.361-0.619-3.904-1-2-0.27 1.36 0.62 3.9 1 2zm-167-1v4h7c1.85-5.45-4.39-6.11-7-4zm12 4c1.496-0.17 3.69 0.357 4-1-3.16 0.492-0.371-4.963-4-4v5zm9 0c4.404 0.404 8.268 0.268 7-5h-7v5zm9 0c4.195 0.195 8.059 0.059 7-5h-7v5zm9-1c2.818-0.516 8.452 1.785 7-3-0.431-2.236-4.929-0.406-7-1v4zm9 0c2.818-0.516 8.451 1.785 7-3-0.431-2.236-4.929-0.406-7-1v4zm-67 1c1.674 1.768 3.351-0.889 7 0 1.96-5.61-8.96-5.61-7 0zm10 0h7c1.092-4.758-3.253-4.082-7-4v4zm-84-3c-2.011 2.988-0.565 9.436-1 14 16.891 0.559 30.906-1.762 48-1v-13h-47zm61 4c0.708-0.738 2.492-4.895-1-4 0.17 1.49-0.36 3.69 1 4zm3 0c2.819-0.516 8.452 1.785 7-3-0.431-2.236-4.928-0.406-7-1v4zm-74 9c2.409-0.41 2.174 1.826 5 1 1.111-3.035-0.637-7.596 0-13h-5v12zm-20-9c2.134 2.148 5.447 0.371 6-2-2.65 0.01-5.89-0.55-6 2zm289-2c-3.04 3.37 3.7 3.03 0 0zm-18 3c2.74 0.904-1.952 3.682 2 4 0.168-1.166 1.581-1.086 3-1-0.547-1.453 1.169-5.17-1-5 0.72 2.71-4.72-0.72-4 2zm9 3h5c-0.547-1.453 1.168-5.17-1-5-0.241 2.578-1.721-1.373-4 0v5zm-109 3h7v-6c-4.81-0.48-8.18 0.49-7 6zm9-3v2c1.289 1.377 4.344 0.99 7 1v-6c-3.3 0.04-7.08-0.41-7 3zm13 3v-6h-3c-1.85 1.97-1.49 7.36 3 6zm-70-4c-0.319 2.318 0.161 3.838 1 5 2.356 0.021 2.944-1.723 6-1v-5c-2.66 0.01-5.71-0.38-7 1zm12 4h5v-5h-5v5zm9 0h7v-5h-7v5zm9 0h7v-5h-7v5zm9 0h7v-5h-7v5zm-72 1c3.073 1.529 3.073-6.531 0-5v5zm4 0h7v-5h-7v5zm10 0h7v-5h-7v5zm10 0c4.404 0.404 8.267 0.268 7-5h-7v5zm-114 1c0.625 2.135 6.155 0.938 7 0v-4c-1.758 0.574-5.875-1.209-6 1 5.48 0.92-2.58-0.04-1 3z"/>
	<path d="m322 586.01c3.135-0.469 2.819 2.516 4 4-0.05 1.25-4.27-1.63-4-4z" fill="#fff"/>
	<path d="m420 637.01h4v5h-5c-0.41-2.41 1.83-2.17 1-5z" fill="#fff"/>
<path d="m164.87 567.57c17.729 1.979 39.649-0.395 59.008-0.105 0.295-9.48-4.684-13.482-8.354-18.848-12.288 2.25-27.043-2.238-36.994 0.691-7.86 2.32-12.1 10.79-13.67 18.27z" fill="#fff"/>
<path d="m164.95 571.57c0.056 3 0.112 6 0.168 8.998 16.963 2.096 39.033-1.111 56.028 0.951 2.357-2.639 3.971-5.992 3.793-11.072-20.5 1.54-42.12-1.08-59.99 1.12z" fill="#fff"/>
<path d="m266.71 267.19s0.686-5.07 0.686-6.44 0.137-1.37-1.918-1.644-5.344-1.371-5.344-1.371-0.959-0.274-1.096 0.548-0.884 8.367-0.959 9.044 0.548 1.096 0.959 0.822 7.67-0.96 7.67-0.96z"/>
<path d="m279.86 252.81l0.137-7.263s-0.411-0.411-1.918 0-16.307 8.359-16.307 8.359-1.233 1.37-0.959 1.644 7.399 3.152 7.399 3.152 3.7-3.015 5.208-3.563 6.44-2.33 6.44-2.33z"/>
<path d="m295.66 267.19s-0.686-5.07-0.686-6.44-0.137-1.37 1.919-1.644 5.345-1.371 5.345-1.371 0.959-0.274 1.096 0.548 0.884 8.367 0.959 9.044c0.076 0.677-0.548 1.096-0.959 0.822s-7.68-0.96-7.68-0.96z"/>
<path d="m282.5 252.81l-0.137-7.263s0.411-0.411 1.918 0 16.307 8.359 16.307 8.359 1.232 1.37 0.959 1.644-7.399 3.152-7.399 3.152-3.7-3.015-5.208-3.563-6.44-2.33-6.44-2.33z"/>
<polygon points="289.94 219.36 290.11 213.26 273.25 213.26 273.25 219.02"/>
<path d="m290.28 209.08v-7.671s-2.44-2.092-8.717-2.092-8.368 2.441-8.368 2.441v7.322h17.09z"/>
<metadata><rdf:RDF><cc:Work><dc:format>image/svg+xml</dc:format><dc:type rdf:resource="http://purl.org/dc/dcmitype/StillImage"/><cc:license rdf:resource="http://creativecommons.org/licenses/publicdomain/"/><dc:publisher><cc:Agent rdf:about="http://openclipart.org/"><dc:title>Openclipart</dc:title></cc:Agent></dc:publisher><dc:title>space shuttle liftoff</dc:title><dc:date>2006-10-15T20:58:54</dc:date><dc:description>a coloring page of the space shuttle at liftoff from a NASA coloring page</dc:description><dc:source>http://openclipart.org/detail/638/space-shuttle-liftoff-by-johnny_automatic</dc:source><dc:creator><cc:Agent><dc:title>johnny_automatic</dc:title></cc:Agent></dc:creator><dc:subject><rdf:Bag><rdf:li>black &amp; white</rdf:li><rdf:li>clip art</rdf:li><rdf:li>clipart</rdf:li><rdf:li>coloring book</rdf:li><rdf:li>contour</rdf:li><rdf:li>liftoff</rdf:li><rdf:li>nasa</rdf:li><rdf:li>outline</rdf:li><rdf:li>space</rdf:li><rdf:li>space shuttle</rdf:li><rdf:li>spacecraft</rdf:li><rdf:li>vehicle</rdf:li></rdf:Bag></dc:subject></cc:Work><cc:License rdf:about="http://creativecommons.org/licenses/publicdomain/"><cc:permits rdf:resource="http://creativecommons.org/ns#Reproduction"/><cc:permits rdf:resource="http://creativecommons.org/ns#Distribution"/><cc:permits rdf:resource="http://creativecommons.org/ns#DerivativeWorks"/></cc:License></rdf:RDF></metadata></svg>
